# xmcd
#
# Track frame offsets: 
#        182
#        30132
#        39652
#        58787
#        72855
#        108500
#        120245
#        133860
#        172145
#        190780
#        220017
#        252525
#
# Disc length: 3558 seconds
#
# Revision: 1
# Processed by: cddbd v1.5.2PL0 Copyright (c) Steve Scherf et al.
# Submitted via: ExactAudioCopy v0.99pb5
#
DISCID=aa0de40c
DTITLE=Gary Moore - Blues for Greeny
DYEAR=1995
DGENRE=Blues Rock
TTITLE0=If You Be My Baby
TTITLE1=Long Grey Mare
TTITLE2=Merry-Go-Round
TTITLE3=I Loved Another Woman
TTITLE4=Need Your Love So Bad
TTITLE5=The Same Way
TTITLE6=The Supernatural
TTITLE7=Driftin'
TTITLE8=Showbiz Blues
TTITLE9=Love That Burns
TTITLE10=Looking for Somebody
TTITLE11=The World Keeps On Turnin' (Acoustic Version)
EXTD=
EXTT0=
EXTT1=
EXTT2=
EXTT3=
EXTT4=
EXTT5=
EXTT6=
EXTT7=
EXTT8=
EXTT9=
EXTT10=
EXTT11=
PLAYORDER=
